<svg xmlns="http://www.w3.org/2000/svg" width="55.063" height="26.725" viewBox="0 0 55.063 26.725"><defs><style>.a{fill:#ff660a;}.a,.b{fill-rule:evenodd;}</style></defs><path class="a" d="M19.068,22.946v1.549h-.994V22.946Zm-17.079,0V25.8H1.014V22.946Zm19.49-.976v3.845h1.607a.449.449,0,0,1,.363.344v.612H21.287a.867.867,0,0,1-.765-.918V21.969h.957Zm-2.3,0a.848.848,0,0,1,.841.746v4.055h-.937v-1.3H18.074v1.3h-.956V22.735a.834.834,0,0,0,.038-.192c.037-.363.516-.592.784-.573h1.243Zm-2.563,0v.956h-.976v3.844H14.67V22.926h-.976V21.97Zm-3.424,0v.956h-.975v2.889H13.2v.956H10.29v-.956h.956V22.926H10.29V21.97Zm-3.4,0v.956H7.823v2.889H8.836v-1.3h.956v2.258H7.631a.856.856,0,0,1-.765-.8v-3.2a.319.319,0,0,0,.019-.133.818.818,0,0,1,.822-.67H9.792Zm-3.424,0v.956H5.393v2.889h.975v.956H3.443v-.956h.975V22.926H3.443V21.97Zm-4.265,0a.876.876,0,0,1,.861.956V25.8a.893.893,0,0,1-.822.975H.039v-4.8H2.1ZM54.833.2c.019.019.057.019.057.077v2.7a1.04,1.04,0,0,1-.975.937H51.334c-.019-.019-.057-.019-.1-.057V1A1.013,1.013,0,0,1,52.1.2h2.734ZM5.584.1c.039,0,.192.037.192.115V4.6a.466.466,0,0,0-.038.153c0,.5-.823,1.206-1.282,1.206H.116C.077,5.939,0,5.862,0,5.824V1.6A.637.637,0,0,0,.019,1.4,1.636,1.636,0,0,1,1.3.123.665.665,0,0,0,1.492.1H5.584Z" transform="translate(0 -0.047)"/><path class="b" d="M49.682,11.86v2.467c-.019.058-.23.4-.382.4H45.819V12.262a.526.526,0,0,1,.459-.4h3.4ZM5.808,19.437H.07V6.561l4.3.019a2.435,2.435,0,0,0,1.434-.632V19.437ZM33.272,4.878v9.68H29.408V5.031c.019-.1.153-.153.248-.153h3.615ZM51.078,0A1.677,1.677,0,0,0,50.6,1.033V3.806a.832.832,0,0,0,.689.708h2.754a1.85,1.85,0,0,0,1.051-.478l-.019,15.4H44.231c-.191-.019-.382-.078-.574-.1a4.4,4.4,0,0,1-3.06-2.257c-.057-.154-.154-.345-.191-.478-.057-.249-.154-.709-.154-.746V10.292c.038-.248.1-.536.154-.784.4-1.589,2.276-2.22,3.424-2.22h5.489V4.859h-7.9V0ZM39.029,0V22.765c-.019.248-.077.478-.1.708a6.444,6.444,0,0,1-.21.765c-.573,1.645-2.428,2.277-3.634,2.411-.21.019-.631.077-.688.077H24.7V21.866h8.568V19.437H26.98c-.995-.116-2.449-.211-3.061-1.626a3.3,3.3,0,0,1-.191-.612,7.017,7.017,0,0,1-.1-.8V3.577c.019-.172.038-.363.057-.536A3.7,3.7,0,0,1,25.7.344c.1-.037.21-.1.325-.133a3.268,3.268,0,0,1,.592-.153A4.307,4.307,0,0,1,27.133,0ZM18.546,0a3.83,3.83,0,0,1,3.882,3.826V19.437H16.671V5.05c-.039-.039-.134-.192-.211-.192H12.769V19.437H7.032V0Z" transform="translate(-0.031)"/></svg>